<mxfile host="app.diagrams.net" modified="2022-12-19T16:11:00.893Z" agent="5.0 (Windows NT 10.0; Win64; x64) AppleWebKit/537.36 (KHTML, like Gecko) Chrome/108.0.0.0 Safari/537.36" etag="AuDgcrvBOcmwTVuPgtn5" version="20.7.4" type="github">
  <diagram name="Page-1" id="58cdce13-f638-feb5-8d6f-7d28b1aa9fa0">
    <mxGraphModel dx="1647" dy="518" grid="0" gridSize="10" guides="1" tooltips="1" connect="1" arrows="1" fold="1" page="0" pageScale="1" pageWidth="1100" pageHeight="850" background="none" math="0" shadow="0">
      <root>
        <mxCell id="0" />
        <mxCell id="1" parent="0" />
        <mxCell id="2a3bc250acf0617d-8" value="User" style="shape=umlFrame;whiteSpace=wrap;html=1;rounded=1;shadow=0;comic=0;labelBackgroundColor=none;strokeWidth=1;fontFamily=Verdana;fontSize=12;align=center;" parent="1" vertex="1">
          <mxGeometry x="110" y="10" width="1390" height="551" as="geometry" />
        </mxCell>
        <mxCell id="382b91b5511bd0f7-1" value="" style="ellipse;html=1;shape=startState;fillColor=#000000;strokeColor=#ff0000;rounded=1;shadow=0;comic=0;labelBackgroundColor=none;fontFamily=Verdana;fontSize=12;fontColor=#000000;align=center;direction=south;" parent="1" vertex="1">
          <mxGeometry x="130" y="195" width="30" height="30" as="geometry" />
        </mxCell>
        <mxCell id="Hjz2qxNdtFsDajDbBwBD-27" style="edgeStyle=orthogonalEdgeStyle;rounded=0;orthogonalLoop=1;jettySize=auto;html=1;entryX=0.5;entryY=0;entryDx=0;entryDy=0;" edge="1" parent="1" target="Hjz2qxNdtFsDajDbBwBD-26">
          <mxGeometry relative="1" as="geometry">
            <mxPoint x="960" y="530" as="sourcePoint" />
          </mxGeometry>
        </mxCell>
        <mxCell id="382b91b5511bd0f7-6" value="Inactive" style="rounded=1;whiteSpace=wrap;html=1;arcSize=24;fillColor=#ffffc0;strokeColor=#ff0000;shadow=0;comic=0;labelBackgroundColor=none;fontFamily=Verdana;fontSize=12;fontColor=#000000;align=center;" parent="1" vertex="1">
          <mxGeometry x="190" y="180" width="120" height="60" as="geometry" />
        </mxCell>
        <mxCell id="2a3bc250acf0617d-9" style="edgeStyle=orthogonalEdgeStyle;html=1;labelBackgroundColor=none;endArrow=open;endSize=8;strokeColor=#ff0000;fontFamily=Verdana;fontSize=12;align=left;" parent="1" source="382b91b5511bd0f7-1" target="382b91b5511bd0f7-6" edge="1">
          <mxGeometry relative="1" as="geometry" />
        </mxCell>
        <mxCell id="Hjz2qxNdtFsDajDbBwBD-1" value="entry/display home screen&lt;br&gt;&lt;div style=&quot;text-align: left;&quot;&gt;&lt;span style=&quot;background-color: initial;&quot;&gt;exit/close app&lt;/span&gt;&lt;/div&gt;" style="text;html=1;strokeColor=none;fillColor=none;align=center;verticalAlign=middle;whiteSpace=wrap;rounded=0;" vertex="1" parent="1">
          <mxGeometry x="120" y="80" width="150" height="30" as="geometry" />
        </mxCell>
        <mxCell id="Hjz2qxNdtFsDajDbBwBD-13" value="Registration" style="swimlane;whiteSpace=wrap;html=1;rounded=1;shadow=0;comic=0;labelBackgroundColor=none;strokeWidth=1;fontFamily=Verdana;fontSize=12;align=center;" vertex="1" parent="1">
          <mxGeometry x="480" y="40" width="1010" height="340" as="geometry">
            <mxRectangle x="590" y="60" width="110" height="30" as="alternateBounds" />
          </mxGeometry>
        </mxCell>
        <mxCell id="Hjz2qxNdtFsDajDbBwBD-17" style="edgeStyle=elbowEdgeStyle;html=1;labelBackgroundColor=none;endArrow=open;endSize=8;strokeColor=#ff0000;fontFamily=Verdana;fontSize=12;align=left;entryX=0;entryY=0.5;entryDx=0;entryDy=0;" edge="1" parent="Hjz2qxNdtFsDajDbBwBD-13" source="Hjz2qxNdtFsDajDbBwBD-18" target="Hjz2qxNdtFsDajDbBwBD-31">
          <mxGeometry relative="1" as="geometry">
            <mxPoint x="70" y="100" as="targetPoint" />
          </mxGeometry>
        </mxCell>
        <mxCell id="Hjz2qxNdtFsDajDbBwBD-18" value="" style="ellipse;html=1;shape=startState;fillColor=#000000;strokeColor=#ff0000;rounded=1;shadow=0;comic=0;labelBackgroundColor=none;fontFamily=Verdana;fontSize=12;fontColor=#000000;align=center;direction=south;" vertex="1" parent="Hjz2qxNdtFsDajDbBwBD-13">
          <mxGeometry x="10" y="95" width="30" height="30" as="geometry" />
        </mxCell>
        <mxCell id="Hjz2qxNdtFsDajDbBwBD-28" value="entry/display registration screen&lt;br&gt;&lt;div style=&quot;text-align: left;&quot;&gt;&lt;span style=&quot;background-color: initial;&quot;&gt;exit/create user&lt;/span&gt;&lt;/div&gt;" style="text;html=1;strokeColor=none;fillColor=none;align=center;verticalAlign=middle;whiteSpace=wrap;rounded=0;" vertex="1" parent="Hjz2qxNdtFsDajDbBwBD-13">
          <mxGeometry x="3" y="28" width="180" height="30" as="geometry" />
        </mxCell>
        <mxCell id="Hjz2qxNdtFsDajDbBwBD-31" value="DetailsInvalid" style="rounded=1;whiteSpace=wrap;html=1;arcSize=24;fillColor=#ffffc0;strokeColor=#ff0000;shadow=0;comic=0;labelBackgroundColor=none;fontFamily=Verdana;fontSize=12;fontColor=#000000;align=center;" vertex="1" parent="Hjz2qxNdtFsDajDbBwBD-13">
          <mxGeometry x="63" y="80" width="120" height="60" as="geometry" />
        </mxCell>
        <mxCell id="Hjz2qxNdtFsDajDbBwBD-44" value="DetailsValid" style="rounded=1;whiteSpace=wrap;html=1;arcSize=24;fillColor=#ffffc0;strokeColor=#ff0000;shadow=0;comic=0;labelBackgroundColor=none;fontFamily=Verdana;fontSize=12;fontColor=#000000;align=center;" vertex="1" parent="Hjz2qxNdtFsDajDbBwBD-13">
          <mxGeometry x="500" y="40" width="120" height="60" as="geometry" />
        </mxCell>
        <mxCell id="Hjz2qxNdtFsDajDbBwBD-46" style="edgeStyle=elbowEdgeStyle;html=1;labelBackgroundColor=none;endArrow=open;endSize=8;strokeColor=#ff0000;fontFamily=Verdana;fontSize=12;align=left;exitX=1;exitY=0.5;exitDx=0;exitDy=0;entryX=0;entryY=0.5;entryDx=0;entryDy=0;" edge="1" parent="Hjz2qxNdtFsDajDbBwBD-13" source="Hjz2qxNdtFsDajDbBwBD-31" target="Hjz2qxNdtFsDajDbBwBD-59">
          <mxGeometry relative="1" as="geometry">
            <mxPoint x="50" y="110" as="sourcePoint" />
            <mxPoint x="330" y="100" as="targetPoint" />
          </mxGeometry>
        </mxCell>
        <mxCell id="Hjz2qxNdtFsDajDbBwBD-47" value="enter user details/&lt;br&gt;validateDetails" style="edgeLabel;html=1;align=center;verticalAlign=middle;resizable=0;points=[];" vertex="1" connectable="0" parent="Hjz2qxNdtFsDajDbBwBD-46">
          <mxGeometry x="-0.1974" relative="1" as="geometry">
            <mxPoint x="10" as="offset" />
          </mxGeometry>
        </mxCell>
        <mxCell id="Hjz2qxNdtFsDajDbBwBD-59" value="" style="rhombus;whiteSpace=wrap;html=1;fillColor=#ffffc0;strokeColor=#ff0000;" vertex="1" parent="Hjz2qxNdtFsDajDbBwBD-13">
          <mxGeometry x="330" y="90" width="40" height="40" as="geometry" />
        </mxCell>
        <mxCell id="Hjz2qxNdtFsDajDbBwBD-73" style="edgeStyle=elbowEdgeStyle;html=1;labelBackgroundColor=none;endArrow=open;endSize=8;strokeColor=#ff0000;fontFamily=Verdana;fontSize=12;align=left;exitX=1;exitY=0.5;exitDx=0;exitDy=0;entryX=0;entryY=0.5;entryDx=0;entryDy=0;" edge="1" parent="Hjz2qxNdtFsDajDbBwBD-13" source="Hjz2qxNdtFsDajDbBwBD-59" target="Hjz2qxNdtFsDajDbBwBD-44">
          <mxGeometry relative="1" as="geometry">
            <mxPoint x="370.0000000000002" y="102.5" as="sourcePoint" />
            <mxPoint x="517" y="97.5" as="targetPoint" />
          </mxGeometry>
        </mxCell>
        <mxCell id="Hjz2qxNdtFsDajDbBwBD-74" value="[validateDetails = True]" style="edgeLabel;html=1;align=center;verticalAlign=middle;resizable=0;points=[];" vertex="1" connectable="0" parent="Hjz2qxNdtFsDajDbBwBD-73">
          <mxGeometry x="-0.1974" relative="1" as="geometry">
            <mxPoint x="2" y="-15" as="offset" />
          </mxGeometry>
        </mxCell>
        <mxCell id="Hjz2qxNdtFsDajDbBwBD-75" style="edgeStyle=elbowEdgeStyle;html=1;labelBackgroundColor=none;endArrow=open;endSize=8;strokeColor=#ff0000;fontFamily=Verdana;fontSize=12;align=left;exitX=0.5;exitY=0;exitDx=0;exitDy=0;entryX=0.5;entryY=0;entryDx=0;entryDy=0;" edge="1" parent="Hjz2qxNdtFsDajDbBwBD-13" source="Hjz2qxNdtFsDajDbBwBD-59" target="Hjz2qxNdtFsDajDbBwBD-31">
          <mxGeometry relative="1" as="geometry">
            <mxPoint x="193.00000000000023" y="120" as="sourcePoint" />
            <mxPoint x="340" y="120" as="targetPoint" />
            <Array as="points">
              <mxPoint x="210" y="60" />
              <mxPoint x="210" y="70" />
            </Array>
          </mxGeometry>
        </mxCell>
        <mxCell id="Hjz2qxNdtFsDajDbBwBD-76" value="[else]" style="edgeLabel;html=1;align=center;verticalAlign=middle;resizable=0;points=[];" vertex="1" connectable="0" parent="Hjz2qxNdtFsDajDbBwBD-75">
          <mxGeometry x="-0.1974" relative="1" as="geometry">
            <mxPoint x="-39" as="offset" />
          </mxGeometry>
        </mxCell>
        <mxCell id="Hjz2qxNdtFsDajDbBwBD-81" style="edgeStyle=elbowEdgeStyle;html=1;labelBackgroundColor=none;endArrow=open;endSize=8;strokeColor=#ff0000;fontFamily=Verdana;fontSize=12;align=left;exitX=1;exitY=0.5;exitDx=0;exitDy=0;entryX=0;entryY=0.5;entryDx=0;entryDy=0;" edge="1" parent="Hjz2qxNdtFsDajDbBwBD-13" source="Hjz2qxNdtFsDajDbBwBD-79" target="Hjz2qxNdtFsDajDbBwBD-83">
          <mxGeometry relative="1" as="geometry">
            <mxPoint x="-380" y="200" as="sourcePoint" />
            <mxPoint x="-100" y="190" as="targetPoint" />
          </mxGeometry>
        </mxCell>
        <mxCell id="Hjz2qxNdtFsDajDbBwBD-82" value="enter payment details/&lt;br&gt;validatePayment" style="edgeLabel;html=1;align=center;verticalAlign=middle;resizable=0;points=[];" vertex="1" connectable="0" parent="Hjz2qxNdtFsDajDbBwBD-81">
          <mxGeometry x="-0.1974" relative="1" as="geometry">
            <mxPoint x="10" as="offset" />
          </mxGeometry>
        </mxCell>
        <mxCell id="Hjz2qxNdtFsDajDbBwBD-83" value="" style="rhombus;whiteSpace=wrap;html=1;fillColor=#ffffc0;strokeColor=#ff0000;" vertex="1" parent="Hjz2qxNdtFsDajDbBwBD-13">
          <mxGeometry x="380" y="270" width="40" height="40" as="geometry" />
        </mxCell>
        <mxCell id="Hjz2qxNdtFsDajDbBwBD-84" style="edgeStyle=elbowEdgeStyle;html=1;labelBackgroundColor=none;endArrow=open;endSize=8;strokeColor=#ff0000;fontFamily=Verdana;fontSize=12;align=left;exitX=1;exitY=0.5;exitDx=0;exitDy=0;entryX=0;entryY=0.5;entryDx=0;entryDy=0;" edge="1" parent="Hjz2qxNdtFsDajDbBwBD-13" source="Hjz2qxNdtFsDajDbBwBD-83" target="Hjz2qxNdtFsDajDbBwBD-80">
          <mxGeometry relative="1" as="geometry">
            <mxPoint x="-59.99999999999977" y="192.5" as="sourcePoint" />
            <mxPoint x="87" y="187.5" as="targetPoint" />
          </mxGeometry>
        </mxCell>
        <mxCell id="Hjz2qxNdtFsDajDbBwBD-85" value="[validatePayment = True]" style="edgeLabel;html=1;align=center;verticalAlign=middle;resizable=0;points=[];" vertex="1" connectable="0" parent="Hjz2qxNdtFsDajDbBwBD-84">
          <mxGeometry x="-0.1974" relative="1" as="geometry">
            <mxPoint x="-4" y="-20" as="offset" />
          </mxGeometry>
        </mxCell>
        <mxCell id="Hjz2qxNdtFsDajDbBwBD-86" style="edgeStyle=elbowEdgeStyle;html=1;labelBackgroundColor=none;endArrow=open;endSize=8;strokeColor=#ff0000;fontFamily=Verdana;fontSize=12;align=left;exitX=0.5;exitY=0;exitDx=0;exitDy=0;entryX=0.5;entryY=0;entryDx=0;entryDy=0;" edge="1" parent="Hjz2qxNdtFsDajDbBwBD-13" source="Hjz2qxNdtFsDajDbBwBD-83" target="Hjz2qxNdtFsDajDbBwBD-79">
          <mxGeometry relative="1" as="geometry">
            <mxPoint x="-236.99999999999977" y="210" as="sourcePoint" />
            <mxPoint x="-90" y="210" as="targetPoint" />
            <Array as="points">
              <mxPoint x="330" y="240" />
              <mxPoint x="310" y="220" />
              <mxPoint x="260" y="210" />
              <mxPoint x="260" y="220" />
            </Array>
          </mxGeometry>
        </mxCell>
        <mxCell id="Hjz2qxNdtFsDajDbBwBD-87" value="[else]" style="edgeLabel;html=1;align=center;verticalAlign=middle;resizable=0;points=[];" vertex="1" connectable="0" parent="Hjz2qxNdtFsDajDbBwBD-86">
          <mxGeometry x="-0.1974" relative="1" as="geometry">
            <mxPoint x="-39" as="offset" />
          </mxGeometry>
        </mxCell>
        <mxCell id="Hjz2qxNdtFsDajDbBwBD-32" value="Payment" style="swimlane;whiteSpace=wrap;html=1;rounded=1;shadow=0;comic=0;labelBackgroundColor=none;strokeWidth=1;fontFamily=Verdana;fontSize=12;align=center;startSize=23;" vertex="1" parent="Hjz2qxNdtFsDajDbBwBD-13">
          <mxGeometry x="20" y="170" width="983" height="160" as="geometry">
            <mxRectangle x="590" y="60" width="110" height="30" as="alternateBounds" />
          </mxGeometry>
        </mxCell>
        <mxCell id="Hjz2qxNdtFsDajDbBwBD-36" value="entry/display payment screen&lt;br&gt;&lt;div style=&quot;&quot;&gt;&lt;span style=&quot;background-color: initial;&quot;&gt;exit/d&lt;/span&gt;&lt;span style=&quot;background-color: initial;&quot;&gt;isplay registration screen&lt;/span&gt;&lt;/div&gt;" style="text;html=1;strokeColor=none;fillColor=none;align=left;verticalAlign=middle;whiteSpace=wrap;rounded=0;" vertex="1" parent="Hjz2qxNdtFsDajDbBwBD-32">
          <mxGeometry x="10" y="30" width="200" height="30" as="geometry" />
        </mxCell>
        <mxCell id="Hjz2qxNdtFsDajDbBwBD-80" value="PaymentValid" style="rounded=1;whiteSpace=wrap;html=1;arcSize=24;fillColor=#ffffc0;strokeColor=#ff0000;shadow=0;comic=0;labelBackgroundColor=none;fontFamily=Verdana;fontSize=12;fontColor=#000000;align=center;" vertex="1" parent="Hjz2qxNdtFsDajDbBwBD-32">
          <mxGeometry x="565" y="50" width="120" height="60" as="geometry" />
        </mxCell>
        <mxCell id="Hjz2qxNdtFsDajDbBwBD-78" value="" style="ellipse;html=1;shape=startState;fillColor=#000000;strokeColor=#ff0000;rounded=1;shadow=0;comic=0;labelBackgroundColor=none;fontFamily=Verdana;fontSize=12;fontColor=#000000;align=center;direction=south;" vertex="1" parent="Hjz2qxNdtFsDajDbBwBD-32">
          <mxGeometry x="25" y="105" width="30" height="30" as="geometry" />
        </mxCell>
        <mxCell id="Hjz2qxNdtFsDajDbBwBD-102" value="Completed" style="rounded=1;whiteSpace=wrap;html=1;arcSize=24;fillColor=#ffffc0;strokeColor=#ff0000;shadow=0;comic=0;labelBackgroundColor=none;fontFamily=Verdana;fontSize=12;fontColor=#000000;align=center;" vertex="1" parent="Hjz2qxNdtFsDajDbBwBD-32">
          <mxGeometry x="783" y="94" width="120" height="60" as="geometry" />
        </mxCell>
        <mxCell id="Hjz2qxNdtFsDajDbBwBD-96" style="edgeStyle=elbowEdgeStyle;html=1;labelBackgroundColor=none;endArrow=open;endSize=8;strokeColor=#ff0000;fontFamily=Verdana;fontSize=12;align=left;exitX=0.5;exitY=1;exitDx=0;exitDy=0;entryX=0;entryY=0.5;entryDx=0;entryDy=0;" edge="1" parent="Hjz2qxNdtFsDajDbBwBD-32" source="Hjz2qxNdtFsDajDbBwBD-80" target="Hjz2qxNdtFsDajDbBwBD-102">
          <mxGeometry x="-0.0204" y="-20" relative="1" as="geometry">
            <mxPoint x="223" y="130" as="sourcePoint" />
            <mxPoint x="625" y="160" as="targetPoint" />
            <Array as="points">
              <mxPoint x="625" y="120" />
              <mxPoint x="625" y="120" />
            </Array>
            <mxPoint as="offset" />
          </mxGeometry>
        </mxCell>
        <mxCell id="Hjz2qxNdtFsDajDbBwBD-97" value="click pay/&lt;br&gt;processPayment" style="edgeLabel;html=1;align=center;verticalAlign=middle;resizable=0;points=[];" vertex="1" connectable="0" parent="Hjz2qxNdtFsDajDbBwBD-96">
          <mxGeometry x="-0.1974" relative="1" as="geometry">
            <mxPoint x="33" y="5" as="offset" />
          </mxGeometry>
        </mxCell>
        <mxCell id="Hjz2qxNdtFsDajDbBwBD-106" value="" style="ellipse;html=1;shape=endState;fillColor=#000000;strokeColor=#ff0000;rounded=1;shadow=0;comic=0;labelBackgroundColor=none;fontFamily=Verdana;fontSize=12;fontColor=#000000;align=center;" vertex="1" parent="Hjz2qxNdtFsDajDbBwBD-32">
          <mxGeometry x="943" y="109" width="30" height="30" as="geometry" />
        </mxCell>
        <mxCell id="Hjz2qxNdtFsDajDbBwBD-107" style="edgeStyle=elbowEdgeStyle;html=1;labelBackgroundColor=none;endArrow=open;endSize=8;strokeColor=#ff0000;fontFamily=Verdana;fontSize=12;align=left;exitX=1;exitY=0.5;exitDx=0;exitDy=0;entryX=0;entryY=0.5;entryDx=0;entryDy=0;" edge="1" parent="Hjz2qxNdtFsDajDbBwBD-32" source="Hjz2qxNdtFsDajDbBwBD-102" target="Hjz2qxNdtFsDajDbBwBD-106">
          <mxGeometry relative="1" as="geometry">
            <mxPoint x="993" y="130" as="sourcePoint" />
            <mxPoint x="1158" y="90" as="targetPoint" />
            <Array as="points">
              <mxPoint x="923" y="110" />
            </Array>
          </mxGeometry>
        </mxCell>
        <mxCell id="Hjz2qxNdtFsDajDbBwBD-79" value="PaymentInvalid" style="rounded=1;whiteSpace=wrap;html=1;arcSize=24;fillColor=#ffffc0;strokeColor=#ff0000;shadow=0;comic=0;labelBackgroundColor=none;fontFamily=Verdana;fontSize=12;fontColor=#000000;align=center;" vertex="1" parent="Hjz2qxNdtFsDajDbBwBD-32">
          <mxGeometry x="90" y="90" width="120" height="60" as="geometry" />
        </mxCell>
        <mxCell id="Hjz2qxNdtFsDajDbBwBD-77" style="edgeStyle=elbowEdgeStyle;html=1;labelBackgroundColor=none;endArrow=open;endSize=8;strokeColor=#ff0000;fontFamily=Verdana;fontSize=12;align=left;entryX=0;entryY=0.5;entryDx=0;entryDy=0;" edge="1" parent="Hjz2qxNdtFsDajDbBwBD-32" source="Hjz2qxNdtFsDajDbBwBD-78" target="Hjz2qxNdtFsDajDbBwBD-79">
          <mxGeometry relative="1" as="geometry">
            <mxPoint x="-380" y="20" as="targetPoint" />
          </mxGeometry>
        </mxCell>
        <mxCell id="Hjz2qxNdtFsDajDbBwBD-90" style="edgeStyle=elbowEdgeStyle;html=1;labelBackgroundColor=none;endArrow=open;endSize=8;strokeColor=#ff0000;fontFamily=Verdana;fontSize=12;align=left;exitX=1;exitY=0.5;exitDx=0;exitDy=0;" edge="1" parent="Hjz2qxNdtFsDajDbBwBD-13" source="Hjz2qxNdtFsDajDbBwBD-44">
          <mxGeometry relative="1" as="geometry">
            <mxPoint x="635" y="110" as="sourcePoint" />
            <mxPoint x="630" y="169" as="targetPoint" />
            <Array as="points">
              <mxPoint x="630" y="120" />
            </Array>
          </mxGeometry>
        </mxCell>
        <mxCell id="Hjz2qxNdtFsDajDbBwBD-91" value="&lt;span style=&quot;border-color: var(--border-color);&quot;&gt;Click register/&lt;br&gt;&lt;/span&gt;&lt;span style=&quot;border-color: var(--border-color);&quot;&gt;display payment screen&lt;/span&gt;" style="edgeLabel;html=1;align=center;verticalAlign=middle;resizable=0;points=[];" vertex="1" connectable="0" parent="Hjz2qxNdtFsDajDbBwBD-90">
          <mxGeometry x="-0.1974" relative="1" as="geometry">
            <mxPoint y="20" as="offset" />
          </mxGeometry>
        </mxCell>
        <mxCell id="Hjz2qxNdtFsDajDbBwBD-43" style="edgeStyle=orthogonalEdgeStyle;html=1;labelBackgroundColor=none;endArrow=open;endSize=8;strokeColor=#ff0000;fontFamily=Verdana;fontSize=12;align=left;entryX=0.5;entryY=0;entryDx=0;entryDy=0;exitX=0;exitY=0.25;exitDx=0;exitDy=0;" edge="1" parent="1" source="Hjz2qxNdtFsDajDbBwBD-13" target="382b91b5511bd0f7-6">
          <mxGeometry relative="1" as="geometry">
            <mxPoint x="460" y="140" as="sourcePoint" />
            <mxPoint x="390" y="149.97" as="targetPoint" />
            <Array as="points">
              <mxPoint x="250" y="140" />
            </Array>
          </mxGeometry>
        </mxCell>
        <mxCell id="Hjz2qxNdtFsDajDbBwBD-50" value="H" style="shape=ellipse;html=1;fontSize=15;align=center;" vertex="1" parent="1">
          <mxGeometry x="140" y="290" width="20" height="20" as="geometry" />
        </mxCell>
        <mxCell id="Hjz2qxNdtFsDajDbBwBD-88" value="Active" style="rounded=1;whiteSpace=wrap;html=1;arcSize=24;fillColor=#ffffc0;strokeColor=#ff0000;shadow=0;comic=0;labelBackgroundColor=none;fontFamily=Verdana;fontSize=12;fontColor=#000000;align=center;" vertex="1" parent="1">
          <mxGeometry x="190" y="270" width="120" height="60" as="geometry" />
        </mxCell>
        <mxCell id="Hjz2qxNdtFsDajDbBwBD-89" value="" style="ellipse;html=1;shape=endState;fillColor=#000000;strokeColor=#ff0000;rounded=1;shadow=0;comic=0;labelBackgroundColor=none;fontFamily=Verdana;fontSize=12;fontColor=#000000;align=center;" vertex="1" parent="1">
          <mxGeometry x="235" y="354" width="30" height="30" as="geometry" />
        </mxCell>
        <mxCell id="Hjz2qxNdtFsDajDbBwBD-93" style="edgeStyle=orthogonalEdgeStyle;html=1;labelBackgroundColor=none;endArrow=open;endSize=8;strokeColor=#ff0000;fontFamily=Verdana;fontSize=12;align=left;exitX=1;exitY=0.5;exitDx=0;exitDy=0;" edge="1" parent="1" source="382b91b5511bd0f7-6">
          <mxGeometry relative="1" as="geometry">
            <mxPoint x="170" y="220" as="sourcePoint" />
            <mxPoint x="480" y="210" as="targetPoint" />
            <Array as="points">
              <mxPoint x="430" y="210" />
              <mxPoint x="430" y="210" />
            </Array>
          </mxGeometry>
        </mxCell>
        <mxCell id="Hjz2qxNdtFsDajDbBwBD-95" value="&lt;span style=&quot;border-color: var(--border-color);&quot;&gt;Click register/&lt;/span&gt;&lt;br style=&quot;border-color: var(--border-color); background-color: rgb(251, 251, 251);&quot;&gt;&lt;span style=&quot;border-color: var(--border-color);&quot;&gt;display registration screen&lt;/span&gt;" style="edgeLabel;html=1;align=center;verticalAlign=middle;resizable=0;points=[];" vertex="1" connectable="0" parent="Hjz2qxNdtFsDajDbBwBD-93">
          <mxGeometry x="-0.1307" relative="1" as="geometry">
            <mxPoint x="6" as="offset" />
          </mxGeometry>
        </mxCell>
        <mxCell id="Hjz2qxNdtFsDajDbBwBD-99" style="edgeStyle=orthogonalEdgeStyle;html=1;labelBackgroundColor=none;endArrow=open;endSize=8;strokeColor=#ff0000;fontFamily=Verdana;fontSize=12;align=left;exitX=0.5;exitY=1;exitDx=0;exitDy=0;entryX=0.5;entryY=0;entryDx=0;entryDy=0;" edge="1" parent="1" source="Hjz2qxNdtFsDajDbBwBD-88" target="Hjz2qxNdtFsDajDbBwBD-89">
          <mxGeometry relative="1" as="geometry">
            <mxPoint x="430" y="150" as="sourcePoint" />
            <mxPoint x="250" y="350" as="targetPoint" />
            <Array as="points" />
          </mxGeometry>
        </mxCell>
        <mxCell id="Hjz2qxNdtFsDajDbBwBD-110" value="Created" style="rounded=1;whiteSpace=wrap;html=1;arcSize=24;fillColor=#ffffc0;strokeColor=#ff0000;shadow=0;comic=0;labelBackgroundColor=none;fontFamily=Verdana;fontSize=12;fontColor=#000000;align=center;" vertex="1" parent="1">
          <mxGeometry x="1310" y="80" width="120" height="60" as="geometry" />
        </mxCell>
        <mxCell id="Hjz2qxNdtFsDajDbBwBD-115" style="edgeStyle=orthogonalEdgeStyle;html=1;labelBackgroundColor=none;endArrow=open;endSize=8;strokeColor=#ff0000;fontFamily=Verdana;fontSize=12;align=left;exitX=1;exitY=0.5;exitDx=0;exitDy=0;entryX=0;entryY=0.5;entryDx=0;entryDy=0;" edge="1" parent="1" source="Hjz2qxNdtFsDajDbBwBD-50" target="Hjz2qxNdtFsDajDbBwBD-88">
          <mxGeometry relative="1" as="geometry">
            <mxPoint x="260" y="340" as="sourcePoint" />
            <mxPoint x="260" y="364" as="targetPoint" />
            <Array as="points" />
          </mxGeometry>
        </mxCell>
        <mxCell id="Hjz2qxNdtFsDajDbBwBD-116" style="edgeStyle=orthogonalEdgeStyle;html=1;labelBackgroundColor=none;endArrow=none;endSize=8;strokeColor=#ff0000;fontFamily=Verdana;fontSize=12;align=left;exitX=1;exitY=0.5;exitDx=0;exitDy=0;startArrow=open;startFill=0;endFill=0;" edge="1" parent="1" source="Hjz2qxNdtFsDajDbBwBD-88">
          <mxGeometry relative="1" as="geometry">
            <mxPoint x="310" y="299.5" as="sourcePoint" />
            <mxPoint x="480" y="300" as="targetPoint" />
            <Array as="points">
              <mxPoint x="430" y="300" />
            </Array>
          </mxGeometry>
        </mxCell>
        <mxCell id="Hjz2qxNdtFsDajDbBwBD-117" value="&lt;span style=&quot;border-color: var(--border-color);&quot;&gt;Click register/&lt;/span&gt;&lt;br style=&quot;border-color: var(--border-color); background-color: rgb(251, 251, 251);&quot;&gt;&lt;span style=&quot;border-color: var(--border-color);&quot;&gt;display home screen&lt;/span&gt;" style="edgeLabel;html=1;align=center;verticalAlign=middle;resizable=0;points=[];" vertex="1" connectable="0" parent="Hjz2qxNdtFsDajDbBwBD-116">
          <mxGeometry x="-0.1307" relative="1" as="geometry">
            <mxPoint x="16" as="offset" />
          </mxGeometry>
        </mxCell>
        <mxCell id="Hjz2qxNdtFsDajDbBwBD-118" value="" style="ellipse;html=1;shape=endState;fillColor=#000000;strokeColor=#ff0000;rounded=1;shadow=0;comic=0;labelBackgroundColor=none;fontFamily=Verdana;fontSize=12;fontColor=#000000;align=center;" vertex="1" parent="1">
          <mxGeometry x="1355" y="170" width="30" height="30" as="geometry" />
        </mxCell>
        <mxCell id="Hjz2qxNdtFsDajDbBwBD-119" style="edgeStyle=elbowEdgeStyle;html=1;labelBackgroundColor=none;endArrow=open;endSize=8;strokeColor=#ff0000;fontFamily=Verdana;fontSize=12;align=left;exitX=0.5;exitY=1;exitDx=0;exitDy=0;entryX=0.5;entryY=0;entryDx=0;entryDy=0;" edge="1" parent="1" source="Hjz2qxNdtFsDajDbBwBD-110" target="Hjz2qxNdtFsDajDbBwBD-118">
          <mxGeometry relative="1" as="geometry">
            <mxPoint x="1413" y="344" as="sourcePoint" />
            <mxPoint x="1453" y="344" as="targetPoint" />
            <Array as="points" />
          </mxGeometry>
        </mxCell>
        <mxCell id="Hjz2qxNdtFsDajDbBwBD-124" style="edgeStyle=elbowEdgeStyle;html=1;labelBackgroundColor=none;endArrow=open;endSize=8;strokeColor=#ff0000;fontFamily=Verdana;fontSize=12;align=left;exitX=0.75;exitY=0;exitDx=0;exitDy=0;entryX=0;entryY=0.5;entryDx=0;entryDy=0;" edge="1" parent="1" source="Hjz2qxNdtFsDajDbBwBD-32" target="Hjz2qxNdtFsDajDbBwBD-110">
          <mxGeometry relative="1" as="geometry">
            <mxPoint x="1380" y="150" as="sourcePoint" />
            <mxPoint x="1380" y="180" as="targetPoint" />
            <Array as="points">
              <mxPoint x="1237" y="160" />
            </Array>
          </mxGeometry>
        </mxCell>
        <mxCell id="Hjz2qxNdtFsDajDbBwBD-125" value="&lt;span style=&quot;border-color: var(--border-color); font-size: 11px;&quot;&gt;Click submit/&lt;br style=&quot;border-color: var(--border-color);&quot;&gt;&lt;/span&gt;&lt;span style=&quot;border-color: var(--border-color); font-size: 11px;&quot;&gt;create user&lt;/span&gt;" style="edgeLabel;html=1;align=center;verticalAlign=middle;resizable=0;points=[];fontSize=15;" vertex="1" connectable="0" parent="Hjz2qxNdtFsDajDbBwBD-124">
          <mxGeometry x="-0.5517" relative="1" as="geometry">
            <mxPoint y="-6" as="offset" />
          </mxGeometry>
        </mxCell>
      </root>
    </mxGraphModel>
  </diagram>
</mxfile>
